<svg width="24" height="24" viewBox="0 0 24 24" fill="none" xmlns="http://www.w3.org/2000/svg">
<path d="M6.34298 17.6569C5.95251 17.2664 5.95247 16.6332 6.34298 16.2427L14.5355 8.05023L8.4643 8.05023C7.91204 8.0502 7.4644 7.60261 7.4644 7.05034C7.46443 6.4981 7.91206 6.05048 8.4643 6.05045L16.9496 6.05045C17.0142 6.05044 17.0786 6.05802 17.1422 6.07047C17.1896 6.07973 17.2356 6.09208 17.2803 6.10776C17.3273 6.12421 17.3732 6.14417 17.4178 6.16784C17.4407 6.18004 17.4629 6.19331 17.4847 6.2072C17.4912 6.21131 17.4977 6.21535 17.5041 6.21963C17.5192 6.22974 17.5338 6.2405 17.5483 6.25139C17.5857 6.2795 17.6226 6.30919 17.6567 6.34323C17.6902 6.3768 17.7194 6.41343 17.7471 6.45027C17.7592 6.4663 17.7719 6.48184 17.7831 6.4986C17.7875 6.50533 17.7912 6.51251 17.7955 6.51932C17.8087 6.54035 17.8218 6.56149 17.8335 6.58354C17.8569 6.62788 17.8765 6.67357 17.8928 6.72027C17.9074 6.76195 17.9197 6.8047 17.9288 6.8487C17.9424 6.9152 17.9495 6.98273 17.9495 7.05034L17.9495 15.5356C17.9495 16.0879 17.5019 16.5355 16.9496 16.5355C16.3973 16.5355 15.9497 16.0879 15.9497 15.5356L15.9497 9.46445L7.75719 17.6569C7.36667 18.0475 6.7335 18.0475 6.34298 17.6569Z" fill="white"/>
</svg>
