<svg width="20" height="20" viewBox="0 0 20 20" fill="none" xmlns="http://www.w3.org/2000/svg">
<path d="M4.1665 8.33333V5C4.1665 4.33696 4.4299 3.70107 4.89874 3.23223C5.36758 2.76339 6.00346 2.5 6.6665 2.5H13.3332C13.9962 2.5 14.6321 2.76339 15.1009 3.23223C15.5698 3.70107 15.8332 4.33696 15.8332 5V8.33333" stroke="black" stroke-width="1.66667" stroke-linecap="round" stroke-linejoin="round"/>
<path d="M13.3332 12.4997V10.833C13.3332 10.3386 13.4798 9.85521 13.7545 9.44408C14.0292 9.03296 14.4196 8.71253 14.8765 8.52331C15.3333 8.33409 15.8359 8.28458 16.3209 8.38105C16.8059 8.47751 17.2513 8.71561 17.6009 9.06524C17.9506 9.41487 18.1887 9.86033 18.2851 10.3453C18.3816 10.8302 18.3321 11.3329 18.1429 11.7897C17.9537 12.2465 17.6332 12.637 17.2221 12.9117C16.811 13.1864 16.3276 13.333 15.8332 13.333V15.833H4.16651V13.333C3.67205 13.333 3.1887 13.1864 2.77758 12.9117C2.36646 12.637 2.04603 12.2465 1.85681 11.7897C1.66759 11.3329 1.61808 10.8302 1.71454 10.3453C1.811 9.86033 2.04911 9.41487 2.39874 9.06524C2.74837 8.71561 3.19383 8.47751 3.67878 8.38105C4.16373 8.28458 4.6664 8.33409 5.12321 8.52331C5.58003 8.71253 5.97048 9.03296 6.24518 9.44408C6.51988 9.85521 6.6665 10.3386 6.6665 10.833V12.4997" stroke="black" stroke-width="1.66667" stroke-linecap="round" stroke-linejoin="round"/>
<path d="M6.6665 10H13.3332" stroke="black" stroke-width="1.66667" stroke-linecap="round" stroke-linejoin="round"/>
<path d="M5.8335 15.833V17.4997" stroke="black" stroke-width="1.66667" stroke-linecap="round" stroke-linejoin="round"/>
<path d="M14.1665 15.833V17.4997" stroke="black" stroke-width="1.66667" stroke-linecap="round" stroke-linejoin="round"/>
</svg>
