<svg width="24" height="24" viewBox="0 0 24 24" fill="none" xmlns="http://www.w3.org/2000/svg">
<path d="M13.163 2.16807L21.184 7.99607C21.878 8.50007 22.168 9.39307 21.903 10.2081L18.839 19.6381C18.71 20.0353 18.4585 20.3816 18.1206 20.6271C17.7827 20.8727 17.3757 21.005 16.958 21.0051H7.04199C6.62428 21.005 6.21731 20.8727 5.87941 20.6271C5.5415 20.3816 5.29002 20.0353 5.16099 19.6381L2.09699 10.2081C1.96783 9.81068 1.96783 9.3826 2.097 8.98522C2.22617 8.58783 2.47786 8.24156 2.81599 7.99607L10.837 2.16807C11.175 1.92237 11.5821 1.79004 12 1.79004C12.4179 1.79004 12.825 1.92237 13.163 2.16807Z" stroke="#1A1A1A" stroke-width="2" stroke-linecap="round" stroke-linejoin="round"/>
<path d="M12 13C12.7956 13 13.5587 12.6839 14.1213 12.1213C14.6839 11.5587 15 10.7956 15 10C15 9.20435 14.6839 8.44129 14.1213 7.87868C13.5587 7.31607 12.7956 7 12 7C11.2044 7 10.4413 7.31607 9.87868 7.87868C9.31607 8.44129 9 9.20435 9 10C9 10.7956 9.31607 11.5587 9.87868 12.1213C10.4413 12.6839 11.2044 13 12 13Z" stroke="#1A1A1A" stroke-width="2" stroke-linecap="round" stroke-linejoin="round"/>
<path d="M6 20.703V20C6 18.9391 6.42143 17.9217 7.17157 17.1716C7.92172 16.4214 8.93913 16 10 16H14C15.0609 16 16.0783 16.4214 16.8284 17.1716C17.5786 17.9217 18 18.9391 18 20V20.707" stroke="#1A1A1A" stroke-width="2" stroke-linecap="round" stroke-linejoin="round"/>
</svg>
