<svg width="24" height="24" viewBox="0 0 24 24" fill="none" xmlns="http://www.w3.org/2000/svg">
<path d="M7.99976 3C8.35414 3 8.69819 3.0952 8.99976 3.26953C9.30136 3.0951 9.6453 3.00003 9.99976 3H11.9998C12.5302 3 13.0387 3.21087 13.4138 3.58594C13.4256 3.59769 13.4356 3.61104 13.447 3.62305L13.5085 3.60449L13.5671 3.58887L15.7507 3.05859H15.7537C16.8129 2.80431 17.9337 3.40844 18.2332 4.49707L21.9275 17.915L21.9304 17.9238L21.9705 18.1074C22.0428 18.5383 21.9734 18.9834 21.7703 19.374C21.538 19.8204 21.1468 20.1643 20.6746 20.3379C20.6581 20.3439 20.6415 20.3503 20.6248 20.3555L20.491 20.3965C20.4718 20.4024 20.4519 20.4074 20.4324 20.4121L18.2488 20.9424L18.2468 20.9434V20.9424C17.2538 21.1808 16.2055 20.6647 15.8318 19.7021L15.7664 19.5039L13.9998 13.0869V19C13.9997 19.5303 13.7888 20.0391 13.4138 20.4141C13.0388 20.789 12.5301 21 11.9998 21H9.99976C9.6451 21 9.30148 20.9031 8.99976 20.7285C8.69806 20.903 8.35434 21 7.99976 21H5.99976C5.46945 20.9999 4.9607 20.789 4.58569 20.4141C4.21071 20.0391 3.99986 19.5303 3.99976 19V5C3.99976 4.46972 4.21083 3.96098 4.58569 3.58594C4.9607 3.21093 5.46942 3.00007 5.99976 3H7.99976ZM5.99976 19H7.99976V8.99902H5.99976V19ZM9.99976 19H11.9998V17H9.99976V19ZM17.0847 16.7588L17.6951 18.9727V18.9736C17.6954 18.9748 17.6958 18.976 17.697 18.9775C17.6991 18.9801 17.7043 18.9855 17.7126 18.9902C17.7301 19.0001 17.7534 19.0041 17.7791 18.998L19.9373 18.4736L19.9871 18.459C19.9904 18.4572 19.994 18.4545 19.9958 18.4512C19.9979 18.447 19.9979 18.442 19.9968 18.4375V18.4365L19.3767 16.1855L17.0847 16.7588ZM9.99976 15H11.9998V5H9.99976V15ZM15.1521 9.74023L16.5535 14.8301L18.8455 14.2578L17.4441 9.16797L15.1521 9.74023ZM16.2205 5.00293L16.2195 5.00195L14.0759 5.52246L14.0105 5.54297C14.008 5.54475 14.0051 5.54705 14.0037 5.5498C14.0016 5.55411 14.0005 5.55985 14.0017 5.56445L14.6208 7.8125L16.9128 7.24023L16.3044 5.02832V5.02734C16.3041 5.02608 16.3037 5.02502 16.3025 5.02344C16.3005 5.02096 16.2954 5.01657 16.2869 5.01172C16.2693 5.00172 16.2464 4.99671 16.2205 5.00293ZM5.99976 6.99902H7.99976V5H5.99976V6.99902Z" fill="black"/>
</svg>
