<svg width="24" height="24" viewBox="0 0 24 24" fill="none" xmlns="http://www.w3.org/2000/svg">
<path d="M19.0981 2.00488C19.4218 2.0367 19.7137 2.22522 19.8745 2.51465L22.3745 7.01465C22.5911 7.40481 22.523 7.8914 22.2075 8.20703L20.7075 9.70703C20.4032 10.0113 19.9382 10.0868 19.5532 9.89453L18.4478 9.3418L18.0562 10.123L19.6509 16.8994C19.7215 16.8428 19.7941 16.7877 19.8647 16.7295C20.291 16.3785 20.9209 16.4391 21.272 16.8652C21.6228 17.2915 21.5622 17.9214 21.1362 18.2725C18.1775 20.7091 15.1268 22.0009 12.0005 22.001C8.87422 22.001 5.82349 20.709 2.86475 18.2725C2.43864 17.9213 2.37797 17.2915 2.729 16.8652C3.08014 16.4391 3.70999 16.3785 4.13623 16.7295C4.19699 16.7795 4.25916 16.8271 4.31982 16.876L5.76416 10.0146C5.32079 10.0674 4.90541 10.267 4.58643 10.5859C4.21135 10.961 4.00049 11.4696 4.00049 12C4.00049 12.5522 3.5526 12.9998 3.00049 13C2.4482 13 2.00049 12.5523 2.00049 12C2.00049 10.9391 2.42222 9.92202 3.17236 9.17188C3.92249 8.42184 4.93971 8 6.00049 8H11.2954C11.7326 6.77595 12.2694 5.42945 13.2378 4.3418C14.4452 2.98588 16.2198 2.11911 18.9575 2.00098L19.0981 2.00488ZM9.24072 19.5908C10.171 19.8649 11.0904 20.001 12.0005 20.001C12.9103 20.0009 13.8292 19.8648 14.7593 19.5908L13.3237 16H10.6772L9.24072 19.5908ZM18.436 4.04199C16.5103 4.22914 15.438 4.87901 14.7319 5.67188C13.8963 6.61035 13.4667 7.84795 12.9438 9.33203C12.8029 9.73201 12.4245 9.99985 12.0005 10H7.81201L6.09619 18.1465C6.52588 18.4143 6.95422 18.6499 7.37939 18.8584L9.07178 14.6289C9.22366 14.2493 9.59162 14 10.0005 14H14.0005C14.4093 14.0001 14.7774 14.2493 14.9292 14.6289L16.6206 18.8584C17.0416 18.652 17.4657 18.4189 17.8911 18.1543L16.0269 10.2295C15.9733 10.0018 16.0013 9.76197 16.106 9.55273L17.106 7.55273C17.353 7.05886 17.9538 6.8585 18.4478 7.10547L19.8032 7.7832L20.2603 7.32617L18.436 4.04199Z" fill="black"/>
</svg>
