<svg width="20" height="20" viewBox="0 0 20 20" fill="none" xmlns="http://www.w3.org/2000/svg">
<path d="M13.21 1.85815C13.5897 1.70083 14.0031 1.63925 14.4121 1.67944C14.821 1.71975 15.214 1.86046 15.5557 2.08862C15.8973 2.31689 16.1783 2.62574 16.3721 2.98804C16.4495 3.13281 16.5112 3.28521 16.5586 3.44116C16.7148 3.48844 16.8677 3.55027 17.0127 3.62769C17.3752 3.8213 17.6846 4.10248 17.9131 4.44409C18.1414 4.78573 18.2828 5.1787 18.3232 5.58765C18.3636 5.99673 18.3027 6.40996 18.1455 6.78979C17.9883 7.16948 17.7394 7.50454 17.4219 7.76538C17.1042 8.0262 16.7264 8.20559 16.3232 8.28589C15.9201 8.3661 15.5027 8.34553 15.1094 8.22632C14.9889 8.18976 14.8717 8.1425 14.7588 8.08862L14.1699 8.67749C14.7226 9.85674 14.836 11.2396 14.5918 12.6238C14.2387 14.6243 13.1352 16.7097 11.4023 18.4431C11.3795 18.4659 11.3547 18.486 11.3301 18.5056C10.8961 18.8997 10.3441 19.047 9.80566 19.0505C9.24338 19.0542 8.64046 18.9069 8.04492 18.6687C6.85095 18.1911 5.52999 17.285 4.33105 16.0857C3.13171 14.8867 2.22464 13.5659 1.74707 12.3718C1.50896 11.7763 1.36241 11.1725 1.36621 10.6101C1.37001 10.0723 1.51742 9.52123 1.91016 9.08765C1.93 9.06262 1.95148 9.03851 1.97461 9.01538C3.70769 7.28232 5.79244 6.17804 7.79297 5.82495C8.95056 5.62069 10.1069 5.66768 11.1445 6.01147L11.9121 5.2439C11.8582 5.131 11.812 5.01378 11.7754 4.89331C11.6561 4.50011 11.6348 4.08346 11.7148 3.68042C11.795 3.27719 11.9736 2.89963 12.2344 2.58179C12.4951 2.26401 12.8303 2.01556 13.21 1.85815ZM3.58008 10.073C3.37577 10.0744 3.26258 10.1165 3.2002 10.156L3.15332 10.1931L3.15234 10.1941C3.10735 10.2393 3.03415 10.35 3.03223 10.6218C3.03035 10.8998 3.10678 11.2821 3.29492 11.7527C3.67024 12.6912 4.43095 13.8285 5.50977 14.907L5.91602 15.2966C6.86904 16.17 7.84276 16.7933 8.66406 17.1218C9.13478 17.3101 9.51701 17.3863 9.79492 17.3845C10.0677 17.3827 10.1784 17.3087 10.2227 17.2644C10.2677 17.2191 10.3409 17.1078 10.3428 16.8357C10.3446 16.5577 10.2682 16.1753 10.0801 15.7048C9.75167 14.8838 9.12892 13.9105 8.25586 12.9578L7.86621 12.5505C6.7878 11.4718 5.64951 10.7111 4.71094 10.3357C4.24043 10.1475 3.85793 10.0712 3.58008 10.073ZM11.9912 8.42651C11.0976 7.53257 9.71087 7.17934 8.08301 7.46655C7.09634 7.64067 6.0508 8.04849 5.04102 8.68237C5.13725 8.71581 5.23403 8.7504 5.33008 8.78882C6.52412 9.26646 7.84591 10.1724 9.04492 11.3718C10.2441 12.5706 11.1503 13.8917 11.6279 15.0857C11.6662 15.1813 11.7011 15.2779 11.7344 15.3738C12.3673 14.3646 12.7761 13.3208 12.9502 12.3347C13.2374 10.7069 12.8849 9.32019 11.9912 8.42651ZM5.66113 12.7449C5.98657 12.4194 6.51343 12.4194 6.83887 12.7449L7.67285 13.5779C7.99797 13.9033 7.99818 14.4313 7.67285 14.7566C7.3475 15.0817 6.81953 15.0816 6.49414 14.7566L5.66113 13.9226C5.33577 13.5972 5.33592 13.0703 5.66113 12.7449ZM14.249 3.33765C14.1129 3.32427 13.975 3.34498 13.8486 3.39722C13.7223 3.4496 13.6103 3.53274 13.5234 3.63843C13.4366 3.74431 13.3763 3.87033 13.3496 4.00464C13.3229 4.139 13.3303 4.27884 13.3701 4.40991C13.41 4.54068 13.4815 4.65993 13.5781 4.75659C13.9032 5.08196 13.9033 5.60991 13.5781 5.9353L12.6875 6.82593C12.8547 6.9551 13.0168 7.09465 13.1699 7.2478C13.1818 7.2597 13.1923 7.27292 13.2041 7.28491L14.0674 6.42261L14.1279 6.36792C14.2762 6.24625 14.4628 6.17851 14.6562 6.17847C14.8772 6.17856 15.0899 6.26636 15.2461 6.42261C15.3428 6.51921 15.462 6.59085 15.5928 6.63062C15.7238 6.67029 15.8638 6.67784 15.998 6.65112C16.1323 6.62431 16.2585 6.56414 16.3643 6.47729C16.4699 6.3904 16.5531 6.27851 16.6055 6.1521C16.6578 6.02564 16.6775 5.88789 16.6641 5.75171C16.6506 5.61545 16.6034 5.48372 16.5273 5.36987C16.4513 5.25629 16.3481 5.16283 16.2275 5.09839C16.1069 5.03398 15.9717 5.00078 15.835 5.00073C15.6141 5.00089 15.4015 4.91254 15.2451 4.75659C15.0888 4.60041 15.0011 4.38773 15.001 4.16675C15.0009 4.02999 14.9668 3.89479 14.9023 3.77417C14.8378 3.65349 14.7436 3.55043 14.6299 3.47437C14.5161 3.39844 14.3851 3.35113 14.249 3.33765Z" fill="black" />
</svg>
