<svg width="24" height="24" viewBox="0 0 24 24" fill="none" xmlns="http://www.w3.org/2000/svg">
<path fill-rule="evenodd" clip-rule="evenodd" d="M13.6728 12.4002L17.5365 8.53653C17.8884 8.18462 17.8884 7.61582 17.5365 7.26392C17.1846 6.91202 16.6158 6.91202 16.2639 7.26392L12.4002 11.1276L8.53653 7.26392C8.18462 6.91202 7.61582 6.91202 7.26392 7.26392C6.91202 7.61582 6.91202 8.18462 7.26392 8.53653L11.1276 12.4002L7.26392 16.2639C6.91202 16.6158 6.91202 17.1846 7.26392 17.5365C7.43942 17.712 7.66982 17.8002 7.90022 17.8002C8.13063 17.8002 8.36102 17.712 8.53653 17.5365L12.4002 13.6728L16.2639 17.5365C16.4394 17.712 16.6698 17.8002 16.9002 17.8002C17.1306 17.8002 17.361 17.712 17.5365 17.5365C17.8884 17.1846 17.8884 16.6158 17.5365 16.2639L13.6728 12.4002Z" fill="black"/>
</svg>
