<svg width="20" height="20" viewBox="0 0 20 20" fill="none" xmlns="http://www.w3.org/2000/svg">
<path d="M12.5205 0C13.0295 1.00161e-06 13.5336 0.100164 14.0039 0.294922C14.4742 0.489755 14.9017 0.775774 15.2617 1.13574L18.8643 4.7373C19.2243 5.09728 19.5102 5.52477 19.7051 5.99512C19.9 6.46554 20 6.97031 20 7.47949C20 7.98849 19.8998 8.49263 19.7051 8.96289C19.5102 9.43321 19.2242 9.86073 18.8643 10.2207L16.2207 12.8643C15.8608 13.2241 15.4331 13.5093 14.9629 13.7041C14.4925 13.8989 13.9886 14 13.4795 14C12.9704 14 12.4664 13.8989 11.9961 13.7041C11.7035 13.5829 11.4273 13.4268 11.1738 13.2393L5.29297 19.1211C4.79456 19.6194 4.13663 19.9266 3.43457 19.9883C3.42063 19.9895 3.40656 19.9906 3.39258 19.9912L3.21777 19.999C3.20256 19.9997 3.1871 20 3.17188 20H2C1.51013 19.9999 1.03697 19.8197 0.670898 19.4941C0.304969 19.1686 0.0709739 18.7198 0.0136719 18.2334C0.0114626 18.2146 0.00992528 18.1957 0.00878906 18.1768L0.00195312 18.0596C0.000767311 18.0398 3.82539e-06 18.0199 0 18V16.8271L0.0117188 16.5645C0.0655314 15.9548 0.304469 15.3737 0.700195 14.9014L0.729492 14.8682L0.848633 14.7383C0.858432 14.7276 0.868651 14.7173 0.878906 14.707L1.29297 14.293L1.36621 14.2266C1.54418 14.0807 1.76787 14 2 14H3V13C3 12.4477 3.44772 12 4 12H5V11C5 10.7348 5.10549 10.4805 5.29297 10.293L6.75879 8.8252C6.57173 8.57212 6.41591 8.29597 6.29492 8.00391C6.10016 7.53364 6.00003 7.0295 6 6.52051C6 6.01132 6.10005 5.50655 6.29492 5.03613C6.48979 4.56578 6.77571 4.1383 7.13574 3.77832L9.7793 1.13574L9.91699 1.00391C10.2464 0.705428 10.6256 0.465404 11.0371 0.294922C11.5074 0.100167 12.0115 0 12.5205 0ZM12.5205 2C12.274 2 12.0295 2.04823 11.8018 2.14258C11.5741 2.2369 11.3676 2.37559 11.1934 2.5498L8.5498 5.19336C8.37571 5.36751 8.23784 5.57428 8.14355 5.80176C8.04921 6.0295 8 6.27399 8 6.52051C8.00003 6.76689 8.04928 7.01065 8.14355 7.23828C8.23788 7.46597 8.37554 7.67338 8.5498 7.84766L8.85156 8.14844C9.24185 8.53882 9.24162 9.17197 8.85156 9.5625L7 11.4141V13C6.9999 13.5522 6.55222 14 6 14H5V15C4.9999 15.5522 4.55222 16 4 16H2.41406L2.30273 16.1104L2.22754 16.1924C2.08027 16.3713 2.00006 16.5962 2 16.8281V17.9736L2.00195 18H3.14746L3.27148 17.9941C3.50088 17.9712 3.71565 17.8702 3.87891 17.707L10.4365 11.1484C10.827 10.7579 11.461 10.7579 11.8516 11.1484L12.1523 11.4492V11.4502C12.3265 11.6243 12.5333 11.7622 12.7607 11.8564C12.9885 11.9508 13.233 12 13.4795 12C13.726 12 13.9705 11.9508 14.1982 11.8564C14.4257 11.7622 14.6325 11.6243 14.8066 11.4502V11.4492L17.4502 8.80664C17.6245 8.63237 17.7621 8.42496 17.8564 8.19727C17.9507 7.96963 18 7.72588 18 7.47949C18 7.23298 17.9508 6.98849 17.8564 6.76074C17.7622 6.53327 17.6243 6.32649 17.4502 6.15234L13.8477 2.5498C13.6734 2.37559 13.4669 2.2369 13.2393 2.14258C13.0115 2.04823 12.767 2 12.5205 2ZM12.293 5.79297C12.6835 5.40244 13.3165 5.40244 13.707 5.79297L14.707 6.79297C15.0974 7.1835 15.0975 7.81654 14.707 8.20703C14.3165 8.59752 13.6835 8.59745 13.293 8.20703L12.293 7.20703C11.9024 6.81651 11.9024 6.18349 12.293 5.79297Z" fill="#BEDC1C"/>
</svg>
