<svg width="20" height="20" viewBox="0 0 20 20" fill="none" xmlns="http://www.w3.org/2000/svg">
<path d="M13.5781 1.91138C13.9036 1.58603 14.4305 1.58597 14.7559 1.91138L18.0898 5.24438C18.4149 5.56982 18.4151 6.09778 18.0898 6.4231C17.7645 6.74841 17.2366 6.74815 16.9111 6.4231L15.832 5.34399L13.2598 7.91528L15.1719 9.82739C15.4973 10.1528 15.4972 10.6797 15.1719 11.0051C14.8464 11.3306 14.3196 11.3306 13.9941 11.0051L13.75 10.761L8.92285 15.5891C8.76659 15.7454 8.55398 15.8332 8.33301 15.8333H5.34473L3.08887 18.0891C2.76346 18.4145 2.23657 18.4144 1.91113 18.0891C1.58571 17.7637 1.58573 17.2368 1.91113 16.9114L4.16699 14.6555V11.6672C4.16699 11.4462 4.25487 11.2337 4.41113 11.0774L9.23828 6.24927L8.99414 6.00513C8.66904 5.67966 8.66882 5.15272 8.99414 4.82739C9.31948 4.50222 9.84646 4.50234 10.1719 4.82739L12.082 6.73755L14.6543 4.16626L13.5781 3.08911C13.2527 2.76367 13.2527 2.23681 13.5781 1.91138ZM9.92773 7.91626L10.5889 8.57739C10.9142 8.90274 10.914 9.42967 10.5889 9.75513C10.2634 10.0806 9.73657 10.0806 9.41113 9.75513L8.75 9.09399L7.42773 10.4163L8.08887 11.0774C8.41421 11.4027 8.41403 11.9297 8.08887 12.2551C7.76343 12.5806 7.23657 12.5806 6.91113 12.2551L6.25 11.594L5.83301 12.012V14.1672H7.98828L12.5723 9.58325L10.417 7.42798L9.92773 7.91626Z" fill="black" fill-opacity="0.3"/>
</svg>
