<svg width="290" height="201" viewBox="0 0 290 201" fill="none" xmlns="http://www.w3.org/2000/svg">
<path d="M162.876 159.685H162.405C162.377 159.549 162.329 159.43 162.259 159.328C162.191 159.225 162.107 159.139 162.008 159.07C161.911 158.999 161.803 158.946 161.684 158.91C161.565 158.875 161.441 158.857 161.312 158.857C161.076 158.857 160.863 158.917 160.672 159.035C160.482 159.154 160.331 159.33 160.218 159.561C160.107 159.793 160.051 160.077 160.051 160.414C160.051 160.75 160.107 161.034 160.218 161.266C160.331 161.498 160.482 161.673 160.672 161.792C160.863 161.911 161.076 161.97 161.312 161.97C161.441 161.97 161.565 161.952 161.684 161.917C161.803 161.882 161.911 161.829 162.008 161.759C162.107 161.689 162.191 161.602 162.259 161.499C162.329 161.396 162.377 161.277 162.405 161.143H162.876C162.841 161.341 162.776 161.519 162.682 161.676C162.589 161.833 162.472 161.966 162.333 162.076C162.194 162.185 162.038 162.268 161.864 162.325C161.692 162.382 161.508 162.411 161.312 162.411C160.98 162.411 160.685 162.33 160.427 162.168C160.169 162.006 159.966 161.775 159.818 161.477C159.67 161.178 159.596 160.824 159.596 160.414C159.596 160.004 159.67 159.649 159.818 159.351C159.966 159.052 160.169 158.822 160.427 158.66C160.685 158.498 160.98 158.417 161.312 158.417C161.508 158.417 161.692 158.445 161.864 158.502C162.038 158.559 162.194 158.643 162.333 158.753C162.472 158.861 162.589 158.994 162.682 159.151C162.776 159.307 162.841 159.485 162.876 159.685ZM164.95 158.288L163.697 162.942H163.287L164.54 158.288H164.95ZM165.77 163.451C165.694 163.451 165.626 163.444 165.567 163.432C165.507 163.42 165.466 163.409 165.443 163.398L165.557 163.003C165.666 163.031 165.762 163.041 165.846 163.033C165.929 163.026 166.003 162.988 166.068 162.921C166.134 162.855 166.194 162.748 166.248 162.6L166.332 162.373L165.254 159.442H165.74L166.544 161.765H166.575L167.38 159.442H167.866L166.628 162.783C166.572 162.933 166.503 163.058 166.421 163.157C166.339 163.257 166.243 163.331 166.134 163.379C166.027 163.427 165.905 163.451 165.77 163.451Z" fill="black"/>
<path d="M159.999 167.894V167.507L161.707 164.804H161.988V165.404H161.798L160.507 167.446V167.477H162.808V167.894H159.999ZM161.829 168.691V167.776V167.596V164.804H162.277V168.691H161.829ZM164.012 168.16L163.982 168.365C163.961 168.509 163.928 168.664 163.883 168.828C163.84 168.993 163.795 169.148 163.749 169.293C163.702 169.439 163.663 169.554 163.633 169.641H163.291C163.308 169.56 163.329 169.453 163.356 169.32C163.382 169.187 163.409 169.038 163.435 168.874C163.463 168.71 163.486 168.543 163.504 168.372L163.527 168.16H164.012ZM165.949 168.745C165.698 168.745 165.475 168.702 165.279 168.615C165.084 168.529 164.929 168.41 164.814 168.257C164.7 168.102 164.638 167.923 164.628 167.719H165.106C165.116 167.845 165.159 167.953 165.235 168.044C165.311 168.134 165.41 168.204 165.533 168.253C165.656 168.302 165.792 168.327 165.941 168.327C166.108 168.327 166.256 168.298 166.385 168.24C166.515 168.181 166.616 168.1 166.689 167.997C166.763 167.893 166.799 167.773 166.799 167.636C166.799 167.493 166.764 167.367 166.693 167.258C166.622 167.148 166.518 167.062 166.382 167C166.245 166.938 166.078 166.907 165.881 166.907H165.569V166.489H165.881C166.035 166.489 166.17 166.462 166.287 166.406C166.404 166.35 166.496 166.272 166.562 166.171C166.629 166.069 166.663 165.95 166.663 165.814C166.663 165.682 166.634 165.568 166.575 165.47C166.517 165.373 166.435 165.297 166.329 165.242C166.223 165.188 166.099 165.161 165.956 165.161C165.822 165.161 165.696 165.185 165.577 165.235C165.459 165.283 165.363 165.353 165.288 165.445C165.214 165.537 165.173 165.647 165.167 165.776H164.711C164.719 165.572 164.78 165.394 164.895 165.24C165.011 165.086 165.161 164.966 165.347 164.88C165.534 164.794 165.74 164.751 165.964 164.751C166.205 164.751 166.411 164.799 166.583 164.897C166.755 164.993 166.887 165.12 166.98 165.278C167.072 165.437 167.118 165.607 167.118 165.791C167.118 166.01 167.061 166.196 166.945 166.351C166.832 166.505 166.677 166.612 166.48 166.672V166.702C166.726 166.743 166.918 166.847 167.056 167.015C167.193 167.182 167.262 167.389 167.262 167.636C167.262 167.847 167.205 168.037 167.09 168.205C166.976 168.372 166.82 168.504 166.623 168.6C166.425 168.696 166.201 168.745 165.949 168.745Z" fill="black"/>
<path d="M107.296 167.703L105.96 165.919H105.482V167.703H105.011V163.815H105.482V165.501H105.687L107.243 163.815H107.805L106.233 165.524L107.858 167.703H107.296ZM109.376 167.764C109.113 167.764 108.882 167.701 108.684 167.576C108.486 167.451 108.332 167.275 108.22 167.05C108.11 166.825 108.055 166.562 108.055 166.26C108.055 165.957 108.11 165.692 108.22 165.465C108.332 165.239 108.486 165.063 108.684 164.937C108.882 164.812 109.113 164.749 109.376 164.749C109.64 164.749 109.87 164.812 110.067 164.937C110.266 165.063 110.42 165.239 110.531 165.465C110.642 165.692 110.698 165.957 110.698 166.26C110.698 166.562 110.642 166.825 110.531 167.05C110.42 167.275 110.266 167.451 110.067 167.576C109.87 167.701 109.64 167.764 109.376 167.764ZM109.376 167.361C109.576 167.361 109.741 167.31 109.87 167.208C109.999 167.105 110.095 166.97 110.157 166.803C110.219 166.636 110.25 166.455 110.25 166.26C110.25 166.066 110.219 165.884 110.157 165.716C110.095 165.547 109.999 165.411 109.87 165.308C109.741 165.204 109.576 165.152 109.376 165.152C109.176 165.152 109.012 165.204 108.883 165.308C108.754 165.411 108.658 165.547 108.596 165.716C108.534 165.884 108.503 166.066 108.503 166.26C108.503 166.455 108.534 166.636 108.596 166.803C108.658 166.97 108.754 167.105 108.883 167.208C109.012 167.31 109.176 167.361 109.376 167.361ZM111.381 168.797V164.787H111.814V165.251H111.867C111.9 165.2 111.946 165.135 112.004 165.057C112.064 164.977 112.148 164.906 112.258 164.844C112.37 164.781 112.52 164.749 112.71 164.749C112.956 164.749 113.172 164.811 113.359 164.934C113.547 165.056 113.693 165.23 113.798 165.456C113.903 165.681 113.956 165.947 113.956 166.253C113.956 166.562 113.903 166.829 113.798 167.056C113.693 167.281 113.547 167.456 113.361 167.58C113.175 167.702 112.961 167.764 112.718 167.764C112.531 167.764 112.381 167.733 112.268 167.671C112.155 167.608 112.069 167.536 112.008 167.456C111.947 167.375 111.9 167.308 111.867 167.255H111.829V168.797H111.381ZM111.822 166.245C111.822 166.465 111.854 166.66 111.919 166.828C111.983 166.995 112.077 167.126 112.202 167.221C112.326 167.315 112.477 167.361 112.657 167.361C112.844 167.361 113.001 167.312 113.126 167.213C113.253 167.113 113.347 166.979 113.411 166.811C113.475 166.641 113.508 166.453 113.508 166.245C113.508 166.04 113.476 165.855 113.413 165.691C113.351 165.525 113.256 165.394 113.13 165.298C113.004 165.201 112.847 165.152 112.657 165.152C112.475 165.152 112.322 165.198 112.198 165.29C112.074 165.382 111.98 165.509 111.917 165.674C111.853 165.837 111.822 166.028 111.822 166.245ZM115.087 167.043L116.492 164.787H117.008V167.703H116.56V165.448L115.163 167.703H114.639V164.787H115.087V167.043ZM117.517 168.538V167.286H117.76C117.82 167.223 117.871 167.156 117.914 167.084C117.957 167.012 117.994 166.927 118.026 166.828C118.059 166.728 118.087 166.607 118.109 166.464C118.132 166.319 118.152 166.145 118.17 165.942L118.269 164.787H120.122V167.286H120.57V168.538H120.122V167.703H117.965V168.538H117.517ZM118.269 167.286H119.674V165.205H118.686L118.611 165.942C118.579 166.247 118.54 166.513 118.493 166.741C118.446 166.968 118.371 167.15 118.269 167.286ZM122.349 167.764C122.085 167.764 121.854 167.701 121.656 167.576C121.458 167.451 121.304 167.275 121.193 167.05C121.083 166.825 121.027 166.562 121.027 166.26C121.027 165.957 121.083 165.692 121.193 165.465C121.304 165.239 121.458 165.063 121.656 164.937C121.854 164.812 122.085 164.749 122.349 164.749C122.612 164.749 122.842 164.812 123.04 164.937C123.238 165.063 123.393 165.239 123.503 165.465C123.614 165.692 123.67 165.957 123.67 166.26C123.67 166.562 123.614 166.825 123.503 167.05C123.393 167.275 123.238 167.451 123.04 167.576C122.842 167.701 122.612 167.764 122.349 167.764ZM122.349 167.361C122.549 167.361 122.713 167.31 122.842 167.208C122.971 167.105 123.067 166.97 123.129 166.803C123.191 166.636 123.222 166.455 123.222 166.26C123.222 166.066 123.191 165.884 123.129 165.716C123.067 165.547 122.971 165.411 122.842 165.308C122.713 165.204 122.549 165.152 122.349 165.152C122.149 165.152 121.984 165.204 121.855 165.308C121.726 165.411 121.63 165.547 121.568 165.716C121.506 165.884 121.475 166.066 121.475 166.26C121.475 166.455 121.506 166.636 121.568 166.803C121.63 166.97 121.726 167.105 121.855 167.208C121.984 167.31 122.149 167.361 122.349 167.361ZM124.354 168.797V164.787H124.786V165.251H124.84C124.873 165.2 124.918 165.135 124.976 165.057C125.036 164.977 125.121 164.906 125.231 164.844C125.342 164.781 125.493 164.749 125.682 164.749C125.928 164.749 126.144 164.811 126.332 164.934C126.519 165.056 126.665 165.23 126.77 165.456C126.875 165.681 126.928 165.947 126.928 166.253C126.928 166.562 126.875 166.829 126.77 167.056C126.665 167.281 126.52 167.456 126.334 167.58C126.148 167.702 125.933 167.764 125.69 167.764C125.503 167.764 125.353 167.733 125.24 167.671C125.128 167.608 125.041 167.536 124.98 167.456C124.919 167.375 124.873 167.308 124.84 167.255H124.802V168.797H124.354ZM124.794 166.245C124.794 166.465 124.826 166.66 124.891 166.828C124.955 166.995 125.05 167.126 125.174 167.221C125.298 167.315 125.45 167.361 125.629 167.361C125.817 167.361 125.973 167.312 126.098 167.213C126.225 167.113 126.32 166.979 126.383 166.811C126.447 166.641 126.48 166.453 126.48 166.245C126.48 166.04 126.448 165.855 126.385 165.691C126.323 165.525 126.229 165.394 126.102 165.298C125.977 165.201 125.819 165.152 125.629 165.152C125.447 165.152 125.294 165.198 125.17 165.29C125.046 165.382 124.952 165.509 124.889 165.674C124.826 165.837 124.794 166.028 124.794 166.245Z" fill="black"/>
<path d="M112.218 173.24V172.853L113.926 170.149H114.207V170.749H114.017L112.727 172.792V172.822H115.027V173.24H112.218ZM114.048 174.037V173.122V172.942V170.149H114.496V174.037H114.048ZM116.232 173.506L116.201 173.711C116.18 173.855 116.147 174.009 116.103 174.174C116.06 174.338 116.015 174.493 115.968 174.639C115.921 174.784 115.882 174.9 115.852 174.986H115.51C115.527 174.905 115.548 174.798 115.575 174.665C115.601 174.533 115.628 174.384 115.655 174.219C115.682 174.056 115.705 173.889 115.723 173.718L115.746 173.506H116.232ZM117.001 174.037V173.695L118.284 172.291C118.434 172.126 118.558 171.983 118.656 171.862C118.753 171.739 118.825 171.624 118.872 171.516C118.92 171.407 118.944 171.293 118.944 171.175C118.944 171.038 118.912 170.92 118.846 170.82C118.781 170.72 118.693 170.642 118.58 170.588C118.467 170.534 118.341 170.506 118.2 170.506C118.051 170.506 117.921 170.537 117.809 170.599C117.699 170.66 117.614 170.746 117.553 170.856C117.494 170.966 117.464 171.095 117.464 171.243H117.016C117.016 171.015 117.068 170.815 117.173 170.643C117.278 170.471 117.421 170.337 117.602 170.241C117.785 170.144 117.989 170.096 118.216 170.096C118.443 170.096 118.645 170.144 118.821 170.241C118.997 170.337 119.135 170.466 119.235 170.63C119.335 170.793 119.385 170.975 119.385 171.175C119.385 171.318 119.359 171.457 119.307 171.594C119.256 171.729 119.168 171.881 119.041 172.048C118.916 172.214 118.742 172.416 118.519 172.655L117.646 173.589V173.619H119.453V174.037H117.001Z" fill="black"/>
<mask id="path-5-inside-1_2340_5782" fill="white">
<path d="M168.85 132.302H138.448V115.597H152.146V90.873H168.85V132.302Z"/>
</mask>
<path d="M168.85 132.302H138.448V115.597H152.146V90.873H168.85V132.302Z" fill="white"/>
<path d="M168.85 132.302V132.636H169.184V132.302H168.85ZM138.448 132.302H138.114V132.636H138.448V132.302ZM138.448 115.597V115.263H138.114V115.597H138.448ZM152.146 115.597V115.931H152.48V115.597H152.146ZM152.146 90.873V90.539H151.812V90.873H152.146ZM168.85 90.873H169.184V90.539H168.85V90.873ZM168.85 132.302V131.968H138.448V132.302V132.636H168.85V132.302ZM138.448 132.302H138.782V115.597H138.448H138.114V132.302H138.448ZM138.448 115.597V115.931H152.146V115.597V115.263H138.448V115.597ZM152.146 115.597H152.48V90.873H152.146H151.812V115.597H152.146ZM152.146 90.873V91.2071H168.85V90.873V90.539H152.146V90.873ZM168.85 90.873H168.516V132.302H168.85H169.184V90.873H168.85Z" fill="black" mask="url(#path-5-inside-1_2340_5782)"/>
<rect x="94.1807" y="91.0401" width="16.3706" height="41.0934" fill="white" stroke="black" stroke-width="0.334093"/>
<rect x="157.491" y="90.2061" width="11.0251" height="0.668186" fill="#999999"/>
<rect x="141.455" y="90.2061" width="11.0251" height="0.668186" fill="#999999"/>
<rect x="125.418" y="90.2061" width="11.0251" height="0.668186" fill="#999999"/>
<rect x="109.382" y="90.2061" width="11.0251" height="0.668186" fill="#999999"/>
<rect x="93.3455" y="90.2061" width="11.0251" height="0.668186" fill="#999999"/>
<path d="M126.311 62.1299L124.975 60.3455H124.496V62.1299H124.026V58.2423H124.496V59.9279H124.701L126.258 58.2423H126.82L125.248 59.9507L126.873 62.1299H126.311ZM128.391 62.1906C128.128 62.1906 127.897 62.128 127.698 62.0027C127.501 61.8774 127.346 61.7021 127.235 61.4769C127.125 61.2516 127.07 60.9884 127.07 60.6872C127.07 60.3835 127.125 60.1184 127.235 59.8918C127.346 59.6653 127.501 59.4894 127.698 59.3641C127.897 59.2388 128.128 59.1762 128.391 59.1762C128.654 59.1762 128.885 59.2388 129.082 59.3641C129.281 59.4894 129.435 59.6653 129.545 59.8918C129.657 60.1184 129.712 60.3835 129.712 60.6872C129.712 60.9884 129.657 61.2516 129.545 61.4769C129.435 61.7021 129.281 61.8774 129.082 62.0027C128.885 62.128 128.654 62.1906 128.391 62.1906ZM128.391 61.7882C128.591 61.7882 128.756 61.7369 128.885 61.6344C129.014 61.5319 129.109 61.3972 129.171 61.2301C129.233 61.0631 129.264 60.8821 129.264 60.6872C129.264 60.4923 129.233 60.3107 129.171 60.1424C129.109 59.9741 129.014 59.8381 128.885 59.7343C128.756 59.6305 128.591 59.5786 128.391 59.5786C128.191 59.5786 128.027 59.6305 127.897 59.7343C127.768 59.8381 127.673 59.9741 127.611 60.1424C127.549 60.3107 127.518 60.4923 127.518 60.6872C127.518 60.8821 127.549 61.0631 127.611 61.2301C127.673 61.3972 127.768 61.5319 127.897 61.6344C128.027 61.7369 128.191 61.7882 128.391 61.7882ZM131.991 61.5224L133.008 59.2142H133.433L132.173 62.1299H131.808L130.571 59.2142H130.988L131.991 61.5224ZM130.844 59.2142V62.1299H130.396V59.2142H130.844ZM133.137 62.1299V59.2142H133.585V62.1299H133.137ZM136.357 60.467V60.8846H134.747V60.467H136.357ZM134.853 59.2142V62.1299H134.405V59.2142H134.853ZM136.698 59.2142V62.1299H136.25V59.2142H136.698ZM138.374 62.1982C138.19 62.1982 138.022 62.1634 137.871 62.0938C137.721 62.0229 137.601 61.9211 137.513 61.7882C137.424 61.6541 137.38 61.4921 137.38 61.3022C137.38 61.1352 137.413 60.9998 137.478 60.896C137.544 60.791 137.632 60.7087 137.742 60.6492C137.852 60.5898 137.974 60.5455 138.107 60.5164C138.241 60.486 138.376 60.4619 138.511 60.4442C138.688 60.4215 138.832 60.4044 138.942 60.393C139.053 60.3803 139.134 60.3594 139.185 60.3303C139.237 60.3012 139.263 60.2506 139.263 60.1785V60.1633C139.263 59.976 139.212 59.8305 139.109 59.7267C139.008 59.6229 138.854 59.571 138.648 59.571C138.434 59.571 138.266 59.6179 138.145 59.7115C138.023 59.8052 137.938 59.9051 137.888 60.0114L137.463 59.8596C137.539 59.6824 137.64 59.5445 137.767 59.4457C137.895 59.3458 138.034 59.2762 138.185 59.2369C138.336 59.1964 138.486 59.1762 138.633 59.1762C138.726 59.1762 138.834 59.1876 138.955 59.2104C139.078 59.2319 139.196 59.2768 139.31 59.3451C139.425 59.4135 139.521 59.5166 139.597 59.6546C139.673 59.7925 139.711 59.9773 139.711 60.2088V62.1299H139.263V61.735H139.24C139.21 61.7983 139.159 61.866 139.088 61.9382C139.017 62.0103 138.923 62.0717 138.805 62.1223C138.688 62.1729 138.544 62.1982 138.374 62.1982ZM138.443 61.7958C138.62 61.7958 138.769 61.761 138.891 61.6914C139.014 61.6218 139.106 61.5319 139.168 61.4218C139.231 61.3117 139.263 61.1959 139.263 61.0745V60.6644C139.244 60.6872 139.202 60.7081 139.138 60.7271C139.074 60.7448 139.001 60.7606 138.917 60.7745C138.835 60.7872 138.755 60.7986 138.676 60.8087C138.599 60.8176 138.536 60.8251 138.488 60.8315C138.372 60.8467 138.263 60.8713 138.162 60.9055C138.062 60.9384 137.981 60.9884 137.919 61.0555C137.858 61.1213 137.828 61.2111 137.828 61.325C137.828 61.4807 137.885 61.5984 138 61.6781C138.117 61.7566 138.264 61.7958 138.443 61.7958ZM140.132 59.6318V59.2142H142.501V59.6318H141.544V62.1299H141.096V59.6318H140.132ZM143.861 62.1982C143.676 62.1982 143.508 62.1634 143.358 62.0938C143.207 62.0229 143.088 61.9211 142.999 61.7882C142.91 61.6541 142.866 61.4921 142.866 61.3022C142.866 61.1352 142.899 60.9998 142.965 60.896C143.031 60.791 143.119 60.7087 143.229 60.6492C143.339 60.5898 143.46 60.5455 143.593 60.5164C143.727 60.486 143.862 60.4619 143.998 60.4442C144.175 60.4215 144.318 60.4044 144.428 60.393C144.54 60.3803 144.621 60.3594 144.671 60.3303C144.723 60.3012 144.749 60.2506 144.749 60.1785V60.1633C144.749 59.976 144.698 59.8305 144.596 59.7267C144.494 59.6229 144.341 59.571 144.134 59.571C143.92 59.571 143.753 59.6179 143.631 59.7115C143.51 59.8052 143.424 59.9051 143.375 60.0114L142.95 59.8596C143.026 59.6824 143.127 59.5445 143.253 59.4457C143.381 59.3458 143.52 59.2762 143.671 59.2369C143.823 59.1964 143.972 59.1762 144.119 59.1762C144.213 59.1762 144.32 59.1876 144.442 59.2104C144.565 59.2319 144.683 59.2768 144.797 59.3451C144.912 59.4135 145.007 59.5166 145.083 59.6546C145.159 59.7925 145.197 59.9773 145.197 60.2088V62.1299H144.749V61.735H144.726C144.696 61.7983 144.645 61.866 144.575 61.9382C144.504 62.0103 144.409 62.0717 144.292 62.1223C144.174 62.1729 144.03 62.1982 143.861 62.1982ZM143.929 61.7958C144.106 61.7958 144.256 61.761 144.377 61.6914C144.5 61.6218 144.592 61.5319 144.654 61.4218C144.718 61.3117 144.749 61.1959 144.749 61.0745V60.6644C144.73 60.6872 144.689 60.7081 144.624 60.7271C144.561 60.7448 144.487 60.7606 144.404 60.7745C144.322 60.7872 144.241 60.7986 144.163 60.8087C144.086 60.8176 144.023 60.8251 143.975 60.8315C143.858 60.8467 143.75 60.8713 143.648 60.9055C143.548 60.9384 143.467 60.9884 143.405 61.0555C143.345 61.1213 143.314 61.2111 143.314 61.325C143.314 61.4807 143.372 61.5984 143.487 61.6781C143.603 61.7566 143.751 61.7958 143.929 61.7958Z" fill="black"/>
<path d="M131.195 64.5762V68.4639H130.724V65.0698H130.701L129.752 65.7V65.2216L130.724 64.5762H131.195ZM133.581 68.517C133.295 68.517 133.051 68.4392 132.85 68.2835C132.649 68.1266 132.495 67.8995 132.389 67.6021C132.282 67.3034 132.229 66.9427 132.229 66.5201C132.229 66.0999 132.282 65.7411 132.389 65.4437C132.496 65.1451 132.651 64.9173 132.852 64.7604C133.054 64.6022 133.297 64.5231 133.581 64.5231C133.864 64.5231 134.107 64.6022 134.308 64.7604C134.51 64.9173 134.665 65.1451 134.771 65.4437C134.879 65.7411 134.932 66.0999 134.932 66.5201C134.932 66.9427 134.879 67.3034 134.773 67.6021C134.667 67.8995 134.513 68.1266 134.312 68.2835C134.11 68.4392 133.867 68.517 133.581 68.517ZM133.581 68.0994C133.864 68.0994 134.084 67.9627 134.241 67.6894C134.398 67.416 134.477 67.0263 134.477 66.5201C134.477 66.1834 134.441 65.8968 134.369 65.6601C134.298 65.4235 134.195 65.2432 134.061 65.1191C133.928 64.9951 133.768 64.9331 133.581 64.9331C133.3 64.9331 133.08 65.0717 132.922 65.3488C132.764 65.6247 132.685 66.0151 132.685 66.5201C132.685 66.8567 132.72 67.1427 132.791 67.3781C132.862 67.6134 132.964 67.7925 133.097 67.9153C133.231 68.038 133.392 68.0994 133.581 68.0994ZM136.194 67.9324L136.163 68.1374C136.142 68.2816 136.109 68.436 136.065 68.6005C136.022 68.7651 135.977 68.9201 135.93 69.0656C135.883 69.2111 135.844 69.3269 135.814 69.413H135.472C135.489 69.332 135.51 69.2251 135.537 69.0922C135.564 68.9593 135.59 68.8106 135.617 68.6461C135.645 68.4828 135.667 68.3158 135.685 68.145L135.708 67.9324H136.194ZM138.099 68.517C137.877 68.517 137.676 68.4727 137.498 68.3841C137.319 68.2956 137.176 68.1741 137.069 68.0197C136.961 67.8653 136.902 67.6894 136.892 67.492H137.348C137.365 67.6679 137.445 67.8134 137.587 67.9286C137.73 68.0425 137.901 68.0994 138.099 68.0994C138.259 68.0994 138.4 68.0621 138.524 67.9874C138.65 67.9127 138.748 67.8102 138.819 67.6799C138.891 67.5483 138.927 67.3996 138.927 67.2338C138.927 67.0642 138.89 66.913 138.815 66.7801C138.742 66.646 138.64 66.5403 138.511 66.4631C138.382 66.3859 138.235 66.3467 138.069 66.3454C137.95 66.3441 137.828 66.3625 137.703 66.4005C137.577 66.4372 137.474 66.4846 137.393 66.5428L136.953 66.4897L137.188 64.5762H139.208V64.9939H137.583L137.446 66.1404H137.469C137.549 66.0771 137.649 66.0246 137.769 65.9828C137.889 65.9411 138.014 65.9202 138.145 65.9202C138.383 65.9202 138.595 65.9772 138.781 66.091C138.968 66.2037 139.115 66.3581 139.221 66.5542C139.329 66.7504 139.383 66.9744 139.383 67.2262C139.383 67.4742 139.327 67.6957 139.215 67.8906C139.105 68.0842 138.954 68.2373 138.76 68.35C138.566 68.4613 138.346 68.517 138.099 68.517Z" fill="black"/>
<path d="M133.857 26.0432V31.3887H132.727V27.1159H132.695L131.471 27.8833V26.881L132.794 26.0432H133.857ZM137.223 31.5061C136.774 31.5044 136.388 31.3939 136.064 31.1746C135.742 30.9554 135.494 30.6378 135.32 30.222C135.148 29.8061 135.063 29.3058 135.065 28.7211C135.065 28.1382 135.151 27.6414 135.323 27.2308C135.497 26.8201 135.745 26.5078 136.067 26.2938C136.391 26.078 136.776 25.9701 137.223 25.9701C137.67 25.9701 138.055 26.078 138.377 26.2938C138.7 26.5095 138.949 26.8227 139.123 27.2334C139.297 27.6423 139.383 28.1382 139.382 28.7211C139.382 29.3075 139.295 29.8087 139.121 30.2246C138.948 30.6404 138.701 30.958 138.379 31.1773C138.058 31.3965 137.672 31.5061 137.223 31.5061ZM137.223 30.5691C137.529 30.5691 137.774 30.4151 137.957 30.1071C138.139 29.7991 138.23 29.3371 138.228 28.7211C138.228 28.3157 138.186 27.9781 138.103 27.7084C138.021 27.4387 137.904 27.236 137.753 27.1003C137.603 26.9645 137.427 26.8967 137.223 26.8967C136.919 26.8967 136.675 27.0489 136.492 27.3535C136.31 27.658 136.217 28.1139 136.216 28.7211C136.216 29.1318 136.257 29.4746 136.338 29.7495C136.422 30.0227 136.539 30.228 136.691 30.3655C136.842 30.5012 137.02 30.5691 137.223 30.5691ZM141.191 30.6578L141.162 30.945C141.14 31.1746 141.096 31.4035 141.032 31.6314C140.969 31.8611 140.903 32.069 140.834 32.2552C140.766 32.4414 140.711 32.5876 140.669 32.6937H139.949C139.975 32.5911 140.011 32.4475 140.056 32.2631C140.101 32.0803 140.144 31.875 140.184 31.6471C140.224 31.4191 140.249 31.1868 140.259 30.9502L140.272 30.6578H141.191ZM144.033 31.4618C143.664 31.4618 143.335 31.3939 143.047 31.2582C142.759 31.1224 142.531 30.9354 142.363 30.697C142.194 30.4586 142.106 30.1854 142.099 29.8774H143.195C143.207 30.0845 143.294 30.2524 143.456 30.3812C143.618 30.5099 143.81 30.5743 144.033 30.5743C144.211 30.5743 144.367 30.5352 144.503 30.4569C144.64 30.3768 144.747 30.2663 144.824 30.1254C144.902 29.9827 144.941 29.8191 144.941 29.6347C144.941 29.4468 144.901 29.2814 144.821 29.1388C144.743 28.9961 144.634 28.8847 144.495 28.8047C144.356 28.7246 144.197 28.6837 144.017 28.682C143.861 28.682 143.709 28.7142 143.561 28.7786C143.415 28.843 143.301 28.9308 143.219 29.0422L142.214 28.8621L142.467 26.0432H145.735V26.9672H143.399L143.261 28.3061H143.292C143.386 28.1739 143.528 28.0643 143.717 27.9773C143.907 27.8903 144.119 27.8468 144.354 27.8468C144.676 27.8468 144.963 27.9225 145.216 28.0738C145.468 28.2252 145.667 28.4332 145.813 28.6977C145.959 28.9604 146.032 29.2632 146.03 29.606C146.032 29.9662 145.948 30.2863 145.779 30.5665C145.612 30.8449 145.378 31.0641 145.077 31.2242C144.778 31.3826 144.43 31.4618 144.033 31.4618Z" fill="black"/>
<path d="M132.534 43.75V42.9356L134.436 41.1738C134.598 41.0172 134.734 40.8763 134.844 40.751C134.955 40.6257 135.039 40.503 135.097 40.383C135.154 40.2612 135.183 40.1298 135.183 39.9888C135.183 39.8322 135.147 39.6974 135.076 39.5843C135.005 39.4694 134.907 39.3816 134.784 39.3207C134.66 39.258 134.52 39.2267 134.363 39.2267C134.2 39.2267 134.057 39.2598 133.935 39.3259C133.813 39.392 133.719 39.4868 133.653 39.6104C133.587 39.7339 133.554 39.881 133.554 40.0515H132.481C132.481 39.7017 132.561 39.3981 132.719 39.1406C132.877 38.883 133.099 38.6838 133.385 38.5428C133.67 38.4019 133.999 38.3314 134.371 38.3314C134.754 38.3314 135.087 38.3993 135.371 38.535C135.656 38.669 135.878 38.8552 136.036 39.0936C136.195 39.332 136.274 39.6052 136.274 39.9131C136.274 40.115 136.234 40.3142 136.154 40.5109C136.076 40.7075 135.935 40.9259 135.734 41.166C135.532 41.4044 135.247 41.6906 134.88 42.0247L134.1 42.7895V42.826H136.344V43.75H132.534ZM136.968 42.8104V41.9203L139.199 38.4045H139.967V39.6365H139.512L138.106 41.8629V41.9047H141.277V42.8104H136.968ZM139.533 43.75V42.5389L139.554 42.1448V38.4045H140.614V43.75H139.533ZM143.148 43.0192L143.12 43.3063C143.097 43.536 143.053 43.7648 142.989 43.9927C142.926 44.2224 142.86 44.4304 142.791 44.6166C142.723 44.8027 142.668 44.9489 142.626 45.0551H141.906C141.932 44.9524 141.968 44.8088 142.013 44.6244C142.058 44.4417 142.101 44.2363 142.141 44.0084C142.181 43.7805 142.206 43.5482 142.216 43.3115L142.229 43.0192H143.148ZM146.035 43.8675C145.586 43.8657 145.2 43.7552 144.876 43.536C144.554 43.3167 144.306 42.9992 144.132 42.5833C143.96 42.1674 143.875 41.6671 143.876 41.0825C143.876 40.4996 143.963 40.0028 144.135 39.5921C144.309 39.1815 144.557 38.8691 144.879 38.6551C145.202 38.4393 145.588 38.3314 146.035 38.3314C146.482 38.3314 146.867 38.4393 147.189 38.6551C147.512 38.8708 147.761 39.1841 147.935 39.5947C148.109 40.0036 148.195 40.4996 148.194 41.0825C148.194 41.6689 148.107 42.17 147.933 42.5859C147.76 43.0018 147.513 43.3193 147.191 43.5386C146.869 43.7578 146.484 43.8675 146.035 43.8675ZM146.035 42.9304C146.341 42.9304 146.586 42.7764 146.768 42.4684C146.951 42.1604 147.042 41.6985 147.04 41.0825C147.04 40.677 146.998 40.3395 146.915 40.0698C146.833 39.8 146.716 39.5973 146.565 39.4616C146.415 39.3259 146.239 39.258 146.035 39.258C145.731 39.258 145.487 39.4103 145.304 39.7148C145.121 40.0193 145.029 40.4752 145.028 41.0825C145.028 41.4931 145.068 41.8359 145.15 42.1109C145.234 42.384 145.351 42.5894 145.503 42.7268C145.654 42.8626 145.831 42.9304 146.035 42.9304Z" fill="black"/>
<path d="M120.827 32.0569V37.4023H119.697V33.1296H119.666L118.442 33.897V32.8947L119.765 32.0569H120.827ZM123.39 35.0637L123.455 34.0536L122.609 34.62L122.26 34.004L123.17 33.5603L122.26 33.1166L122.609 32.5006L123.455 33.067L123.39 32.0569H124.092L124.024 33.067L124.87 32.5006L125.219 33.1166L124.311 33.5603L125.219 34.004L124.87 34.62L124.024 34.0536L124.092 35.0637H123.39Z" fill="black"/>
<rect x="115.061" y="23.3868" width="34.7457" height="23.3865" stroke="black" stroke-width="0.668186"/>
<rect x="127.757" y="34.7461" width="22.3842" height="0.668186" fill="black"/>
<rect x="128.425" y="23.0527" width="24.0547" height="0.668185" transform="rotate(90 128.425 23.0527)" fill="black"/>
<path d="M152.48 146.166L148.471 146.166C146.349 146.166 144.629 144.446 144.629 142.324L144.629 136.311C144.629 136.218 144.704 136.144 144.796 136.144L156.155 136.144C156.247 136.144 156.322 136.218 156.322 136.311L156.322 142.324C156.322 144.446 154.602 146.166 152.48 146.166Z" stroke="black" stroke-width="0.334093"/>
<path d="M151.812 145.164L149.139 145.164C147.571 145.164 146.299 143.893 146.299 142.324L146.299 138.983C146.299 138.891 146.374 138.817 146.466 138.816L154.485 138.816C154.577 138.816 154.652 138.891 154.652 138.983L154.652 142.324C154.652 143.893 153.38 145.164 151.812 145.164Z" stroke="black" stroke-width="0.334093"/>
<path d="M150.476 141.488C150.014 141.488 149.64 141.115 149.64 140.653C149.64 140.192 150.014 139.817 150.476 139.817C150.937 139.818 151.311 140.192 151.311 140.653C151.31 141.114 150.937 141.488 150.476 141.488Z" stroke="black" stroke-width="0.334093"/>
<path d="M184.052 162.703C184.052 161.873 184.725 161.2 185.556 161.2L186.558 161.2C186.65 161.2 186.725 161.275 186.725 161.367L186.725 164.04C186.725 164.132 186.65 164.207 186.558 164.207L185.556 164.207C184.725 164.207 184.052 163.533 184.052 162.703Z" stroke="black" stroke-width="0.334093"/>
<circle cx="194.242" cy="162.704" r="0.50114" transform="rotate(-90 194.242 162.704)" stroke="black" stroke-width="0.334093"/>
<path d="M181.045 163.372L181.045 162.035C181.045 159.913 182.765 158.194 184.887 158.193L193.573 158.193C194.957 158.193 196.079 159.315 196.079 160.699L196.079 164.708C196.079 166.092 194.957 167.214 193.573 167.214L184.887 167.214C182.765 167.214 181.045 165.494 181.045 163.372Z" stroke="black" stroke-width="0.334093"/>
<path d="M182.381 162.703C182.381 161.135 183.653 159.863 185.221 159.863L187.894 159.863C189.093 159.863 190.066 160.836 190.066 162.035L190.066 163.371C190.066 164.57 189.093 165.543 187.894 165.543L185.221 165.543C183.653 165.543 182.381 164.271 182.381 162.703Z" stroke="black" stroke-width="0.334093"/>
<rect x="192.07" y="166.546" width="7.68414" height="4.00912" rx="1.83751" transform="rotate(-90 192.07 166.546)" stroke="black" stroke-width="0.334093"/>
<path d="M167.347 143.325C167.347 143.786 166.973 144.161 166.512 144.161C166.051 144.161 165.676 143.786 165.676 143.325C165.676 142.864 166.051 142.49 166.512 142.49C166.973 142.49 167.347 142.864 167.347 143.325Z" stroke="black" stroke-width="0.334093"/>
<rect x="196.079" y="136.143" width="14.366" height="34.4116" transform="rotate(90 196.079 136.143)" stroke="black" stroke-width="0.334093"/>
<path d="M195.077 141.988L195.077 144.661C195.077 146.967 193.207 148.838 190.901 148.838L165.51 148.838C163.941 148.838 162.67 147.566 162.67 145.998L162.67 140.652C162.67 139.084 163.941 137.813 165.51 137.813L190.901 137.813C193.207 137.813 195.077 139.682 195.077 141.988Z" stroke="black" stroke-width="0.334093"/>
<path d="M156.489 5.17871V10.8584H107.544V5.17871H156.489Z" fill="white" stroke="black" stroke-width="0.334093"/>
<rect x="109.048" y="1.33681" width="3.34093" height="21.0479" transform="rotate(90 109.048 1.33681)" fill="#999999" stroke="black" stroke-width="0.668186"/>
<rect x="109.048" y="0.333984" width="21.0479" height="0.334094" transform="rotate(180 109.048 0.333984)" fill="black"/>
<rect x="174.864" y="1.33681" width="3.34093" height="19.3774" transform="rotate(90 174.864 1.33681)" fill="#999999" stroke="black" stroke-width="0.668186"/>
<rect x="174.864" y="0.333984" width="19.7115" height="0.334094" transform="rotate(180 174.864 0.333984)" fill="black"/>
<path d="M117.807 108.235L116.471 106.451H115.993V108.235H115.522V104.348H115.993V106.033H116.198L117.754 104.348H118.316L116.744 106.056L118.369 108.235H117.807ZM118.991 109.329C118.915 109.329 118.848 109.322 118.788 109.31C118.729 109.298 118.688 109.287 118.665 109.276L118.779 108.881C118.888 108.909 118.984 108.919 119.067 108.911C119.151 108.904 119.225 108.866 119.289 108.799C119.355 108.733 119.415 108.626 119.47 108.478L119.553 108.251L118.475 105.32H118.961L119.766 107.643H119.796L120.601 105.32H121.087L119.849 108.661C119.794 108.811 119.725 108.936 119.642 109.035C119.56 109.134 119.465 109.209 119.356 109.257C119.248 109.305 119.127 109.329 118.991 109.329ZM122.012 105.32L122.711 106.512L123.41 105.32H123.926L122.984 106.777L123.926 108.235H123.41L122.711 107.104L122.012 108.235H121.496L122.422 106.777L121.496 105.32H122.012ZM126.516 106.572V106.99H124.907V106.572H126.516ZM125.013 105.32V108.235H124.565V105.32H125.013ZM126.858 105.32V108.235H126.41V105.32H126.858ZM129.43 108.235V105.73H128.656C128.481 105.73 128.344 105.77 128.244 105.851C128.144 105.932 128.094 106.043 128.094 106.185C128.094 106.324 128.139 106.434 128.229 106.514C128.32 106.593 128.444 106.633 128.603 106.633H129.544V107.051H128.603C128.405 107.051 128.235 107.016 128.092 106.946C127.949 106.877 127.839 106.777 127.762 106.648C127.685 106.518 127.646 106.364 127.646 106.185C127.646 106.006 127.686 105.851 127.767 105.722C127.848 105.593 127.964 105.494 128.115 105.424C128.267 105.354 128.447 105.32 128.656 105.32H129.856V108.235H129.43ZM127.486 108.235L128.314 106.785H128.8L127.972 108.235H127.486ZM132.348 106.36V106.777H130.648V106.36H132.348ZM135.088 106.572V106.99H133.478V106.572H135.088ZM133.585 105.32V108.235H133.137V105.32H133.585ZM135.43 105.32V108.235H134.982V105.32H135.43ZM136.696 107.575L138.101 105.32H138.617V108.235H138.169V105.98L136.772 108.235H136.248V105.32H136.696V107.575ZM139.437 105.32H139.885V107.818H140.986V105.32H141.434V107.818H142.535V105.32H142.983V108.235H139.437V105.32ZM144.66 108.304C144.475 108.304 144.307 108.269 144.157 108.199C144.006 108.128 143.886 108.027 143.798 107.894C143.709 107.76 143.665 107.598 143.665 107.408C143.665 107.241 143.698 107.105 143.764 107.001C143.829 106.896 143.917 106.814 144.027 106.755C144.138 106.695 144.259 106.651 144.392 106.622C144.526 106.591 144.661 106.567 144.796 106.55C144.973 106.527 145.117 106.51 145.227 106.498C145.338 106.486 145.419 106.465 145.47 106.436C145.522 106.407 145.548 106.356 145.548 106.284V106.269C145.548 106.081 145.497 105.936 145.394 105.832C145.293 105.728 145.139 105.677 144.933 105.677C144.719 105.677 144.551 105.723 144.43 105.817C144.308 105.911 144.223 106.011 144.174 106.117L143.748 105.965C143.824 105.788 143.926 105.65 144.052 105.551C144.18 105.451 144.319 105.382 144.47 105.342C144.622 105.302 144.771 105.282 144.918 105.282C145.011 105.282 145.119 105.293 145.24 105.316C145.363 105.337 145.481 105.382 145.595 105.451C145.711 105.519 145.806 105.622 145.882 105.76C145.958 105.898 145.996 106.083 145.996 106.314V108.235H145.548V107.841H145.525C145.495 107.904 145.444 107.971 145.373 108.044C145.302 108.116 145.208 108.177 145.09 108.228C144.973 108.278 144.829 108.304 144.66 108.304ZM144.728 107.901C144.905 107.901 145.054 107.866 145.176 107.797C145.299 107.727 145.391 107.637 145.453 107.527C145.516 107.417 145.548 107.301 145.548 107.18V106.77C145.529 106.793 145.487 106.814 145.423 106.833C145.359 106.85 145.286 106.866 145.202 106.88C145.12 106.893 145.04 106.904 144.961 106.914C144.884 106.923 144.822 106.931 144.773 106.937C144.657 106.952 144.548 106.977 144.447 107.011C144.347 107.044 144.266 107.094 144.204 107.161C144.143 107.227 144.113 107.317 144.113 107.43C144.113 107.586 144.17 107.704 144.286 107.784C144.402 107.862 144.549 107.901 144.728 107.901Z" fill="black"/>
<path d="M128.467 114.622C128.244 114.622 128.043 114.578 127.865 114.49C127.686 114.401 127.543 114.28 127.436 114.125C127.328 113.971 127.269 113.795 127.259 113.597H127.715C127.733 113.773 127.812 113.919 127.954 114.034C128.097 114.148 128.268 114.205 128.467 114.205C128.626 114.205 128.768 114.168 128.892 114.093C129.017 114.018 129.115 113.916 129.186 113.785C129.258 113.654 129.294 113.505 129.294 113.339C129.294 113.17 129.257 113.018 129.182 112.886C129.109 112.751 129.008 112.646 128.879 112.569C128.749 112.491 128.602 112.452 128.436 112.451C128.317 112.45 128.195 112.468 128.07 112.506C127.945 112.543 127.841 112.59 127.76 112.648L127.32 112.595L127.555 110.682H129.575V111.099H127.95L127.814 112.246H127.836C127.916 112.183 128.016 112.13 128.136 112.088C128.257 112.047 128.382 112.026 128.512 112.026C128.75 112.026 128.962 112.083 129.148 112.197C129.335 112.309 129.482 112.464 129.588 112.66C129.696 112.856 129.75 113.08 129.75 113.332C129.75 113.58 129.694 113.801 129.583 113.996C129.473 114.19 129.321 114.343 129.127 114.455C128.934 114.567 128.713 114.622 128.467 114.622ZM131.034 114.038L131.003 114.243C130.982 114.387 130.949 114.541 130.904 114.706C130.861 114.871 130.817 115.026 130.77 115.171C130.723 115.317 130.684 115.432 130.654 115.518H130.312C130.329 115.437 130.35 115.331 130.377 115.198C130.403 115.065 130.43 114.916 130.456 114.752C130.484 114.588 130.507 114.421 130.525 114.25L130.548 114.038H131.034ZM132.935 114.622C132.649 114.622 132.405 114.545 132.204 114.389C132.003 114.232 131.849 114.005 131.743 113.708C131.636 113.409 131.583 113.048 131.583 112.626C131.583 112.205 131.636 111.847 131.743 111.549C131.85 111.251 132.005 111.023 132.206 110.866C132.408 110.708 132.651 110.629 132.935 110.629C133.218 110.629 133.461 110.708 133.662 110.866C133.864 111.023 134.019 111.251 134.125 111.549C134.233 111.847 134.286 112.205 134.286 112.626C134.286 113.048 134.233 113.409 134.127 113.708C134.021 114.005 133.867 114.232 133.666 114.389C133.464 114.545 133.221 114.622 132.935 114.622ZM132.935 114.205C133.218 114.205 133.438 114.068 133.595 113.795C133.752 113.521 133.831 113.132 133.831 112.626C133.831 112.289 133.795 112.002 133.723 111.766C133.652 111.529 133.549 111.349 133.415 111.225C133.282 111.101 133.122 111.039 132.935 111.039C132.654 111.039 132.434 111.177 132.276 111.454C132.118 111.73 132.039 112.121 132.039 112.626C132.039 112.962 132.074 113.248 132.145 113.484C132.216 113.719 132.318 113.898 132.451 114.021C132.585 114.143 132.746 114.205 132.935 114.205Z" fill="black"/>
<rect x="110.551" y="132.134" width="3.00684" height="16.3706" transform="rotate(90 110.551 132.134)" fill="#D9D9D9" stroke="black" stroke-width="0.334093"/>
<path d="M197.081 178.907L184.052 178.907L184.052 189.264L181.045 189.264L181.045 175.9L197.081 175.9L197.081 178.907Z" fill="#D9D9D9" stroke="black" stroke-width="0.334093"/>
<path d="M134.049 191.278L114.314 198.177L114.156 198.233L114.711 199.809L114.869 199.753L134.161 192.929L134.272 192.889L134.271 192.771L134.272 191.435L134.271 191.2L134.049 191.278Z" stroke="black" stroke-width="0.334093"/>
<path d="M113.057 190.433L112.723 190.433C112.723 193.842 113.416 197.08 114.661 200L114.961 199.854C113.738 196.979 113.057 193.791 113.057 190.433Z" fill="black"/>
<path d="M138.959 170.999L145.858 151.264L145.914 151.106L147.49 151.661L147.434 151.819L140.611 171.11L140.57 171.222L140.452 171.221L139.117 171.221L138.881 171.221L138.959 170.999Z" stroke="black" stroke-width="0.334093"/>
<path d="M138.114 150.009V149.675C141.522 149.675 144.761 150.367 147.681 151.613L147.534 151.913C144.66 150.689 141.471 150.009 138.114 150.009Z" fill="black"/>
<path d="M107.043 4.67773V10.6914H94.0137V189.766H112.723V195.779H88V4.67773H107.043ZM174.864 4.67773V128.96H203.262V195.445H134.438V189.432H197.248V134.974H168.851V10.6914H156.823V4.67773H174.864Z" fill="#D9D9D9" stroke="black" stroke-width="0.668186"/>
<path d="M163.672 189.264L163.672 178.572L141.288 178.572L141.288 189.264L138.281 189.264L138.281 170.555L141.288 170.555L141.288 175.565L166.679 175.565L166.679 189.264L163.672 189.264Z" fill="#D9D9D9" stroke="black" stroke-width="0.334093"/>
<path d="M138.281 149.841L138.281 132.134L168.683 132.134L168.683 135.141L141.288 135.141L141.288 149.841L138.281 149.841Z" fill="#D9D9D9" stroke="black" stroke-width="0.334093"/>
<path d="M159.162 5.01172L174.864 5.01172L174.864 11.0254L159.162 11.0254L159.162 5.01172Z" fill="black"/>
<path d="M168.516 124.616L168.516 90.873L174.53 90.873L174.53 124.616H168.516Z" fill="black"/>
<path d="M202.928 195.444L145.13 195.444L145.13 189.431L202.928 189.431L202.928 195.444Z" fill="black"/>
<path d="M94.3477 5.01142L94.3477 125.953L88.334 125.953L88.334 5.01142L94.3477 5.01142Z" fill="black"/>
<rect x="94.1807" y="132.134" width="16.3706" height="16.3706" transform="rotate(-90 94.1807 132.134)" fill="white" stroke="black" stroke-width="0.334093"/>
<path d="M101.03 125.285L103.702 122.612M101.03 122.612L103.702 125.285M102.366 125.619L102.366 122.278M100.696 123.949L104.036 123.949" stroke="black" stroke-width="0.334093"/>
<rect x="163.672" y="129.795" width="22.3842" height="11.6933" rx="3.84207" transform="rotate(180 163.672 129.795)" fill="white" stroke="black" stroke-width="0.334093"/>
<rect x="151.645" y="128.459" width="9.02051" height="9.02051" rx="2.17161" transform="rotate(180 151.645 128.459)" fill="white" stroke="black" stroke-width="0.334093"/>
<rect x="162.336" y="128.459" width="9.02051" height="9.02051" rx="2.17161" transform="rotate(180 162.336 128.459)" fill="white" stroke="black" stroke-width="0.334093"/>
<rect x="162.169" y="127.29" width="8.68642" height="0.334093" transform="rotate(180 162.169 127.29)" fill="black"/>
<rect x="162.169" y="125.953" width="8.68642" height="0.334093" transform="rotate(180 162.169 125.953)" fill="black"/>
<rect x="162.169" y="124.616" width="8.68642" height="0.334093" transform="rotate(180 162.169 124.616)" fill="black"/>
<rect x="162.169" y="123.28" width="8.68642" height="0.334093" transform="rotate(180 162.169 123.28)" fill="black"/>
<rect x="162.169" y="121.944" width="8.68642" height="0.334093" transform="rotate(180 162.169 121.944)" fill="black"/>
<path d="M161.966 120.607L153.649 120.607L153.649 120.273L161.966 120.273L161.966 120.607Z" fill="black"/>
<circle cx="147.135" cy="126.287" r="0.835233" transform="rotate(180 147.135 126.287)" stroke="black" stroke-width="0.334093"/>
<rect x="152.313" y="111.42" width="16.3706" height="16.3706" transform="rotate(-90 152.313 111.42)" fill="white" stroke="black" stroke-width="0.334093"/>
<circle cx="164.507" cy="107.243" r="2.5057" transform="rotate(-90 164.507 107.243)" fill="white" stroke="black" stroke-width="0.334093"/>
<circle cx="156.489" cy="107.243" r="2.5057" transform="rotate(-90 156.489 107.243)" fill="white" stroke="black" stroke-width="0.334093"/>
<circle cx="164.507" cy="99.2257" r="2.5057" transform="rotate(-90 164.507 99.2257)" fill="white" stroke="black" stroke-width="0.334093"/>
<circle cx="156.489" cy="99.2257" r="2.5057" transform="rotate(-90 156.489 99.2257)" fill="white" stroke="black" stroke-width="0.334093"/>
<rect x="102.7" y="65.8165" width="14.0319" height="14.0319" rx="7.01596" fill="white"/>
<rect x="102.7" y="65.8165" width="14.0319" height="14.0319" rx="7.01596" stroke="black" stroke-width="0.668186"/>
<path d="M106.687 75.3918C106.369 75.3918 106.084 75.337 105.835 75.2274C105.588 75.1163 105.392 74.964 105.248 74.7704C105.106 74.5753 105.032 74.3504 105.028 74.0956H105.959C105.965 74.2023 106 74.2963 106.064 74.3774C106.129 74.4572 106.216 74.5191 106.324 74.5632C106.433 74.6074 106.554 74.6294 106.69 74.6294C106.83 74.6294 106.955 74.6045 107.063 74.5547C107.171 74.5049 107.256 74.4358 107.317 74.3475C107.379 74.2593 107.409 74.1575 107.409 74.0422C107.409 73.9254 107.376 73.8222 107.311 73.7325C107.247 73.6414 107.154 73.5702 107.033 73.519C106.914 73.4677 106.771 73.4421 106.606 73.4421H106.198V72.763H106.606C106.746 72.763 106.869 72.7388 106.976 72.6904C107.084 72.642 107.168 72.5751 107.228 72.4896C107.287 72.4028 107.317 72.3017 107.317 72.1864C107.317 72.0768 107.291 71.9807 107.238 71.8981C107.187 71.8141 107.115 71.7486 107.021 71.7016C106.928 71.6546 106.82 71.6311 106.696 71.6311C106.571 71.6311 106.456 71.6539 106.352 71.6995C106.248 71.7436 106.165 71.807 106.102 71.8895C106.04 71.9721 106.006 72.0689 106.002 72.18H105.116C105.12 71.928 105.192 71.7059 105.331 71.5137C105.471 71.3215 105.659 71.1713 105.895 71.0631C106.133 70.9535 106.401 70.8987 106.7 70.8987C107.002 70.8987 107.266 70.9535 107.493 71.0631C107.719 71.1727 107.895 71.3208 108.02 71.5073C108.147 71.6924 108.209 71.9002 108.208 72.1309C108.209 72.3757 108.133 72.58 107.979 72.7438C107.827 72.9075 107.628 73.0114 107.384 73.0555V73.0897C107.705 73.131 107.95 73.2428 108.118 73.425C108.288 73.6058 108.372 73.8322 108.37 74.1041C108.372 74.3532 108.3 74.5746 108.155 74.7682C108.011 74.9619 107.812 75.1142 107.559 75.2253C107.305 75.3363 107.015 75.3918 106.687 75.3918ZM110.938 70.9584V75.332H110.013V71.8362H109.987L108.986 72.464V71.644L110.069 70.9584H110.938ZM113.88 70.9584V75.332H112.955V71.8362H112.93L111.928 72.464V71.644L113.011 70.9584H113.88Z" fill="black"/>
</svg>
