<svg width="106" height="32" viewBox="0 0 106 32" fill="none" xmlns="http://www.w3.org/2000/svg">
<path d="M11.3683 10.6143C16.5192 10.6143 20.4087 14.1571 20.4087 19.5582C20.4087 24.9593 16.5192 28.5 11.3683 28.5C6.21744 28.5 2.35376 24.9571 2.35376 19.5582C2.35376 14.5283 6.04367 10.6143 11.3683 10.6143ZM11.3683 25.6503C15.0089 25.6503 17.1886 22.9744 17.1886 19.556C17.1886 15.9639 14.6378 13.4618 11.3683 13.4618C8.09888 13.4618 5.57387 15.9639 5.57387 19.556C5.57387 23.1482 8.12462 25.6503 11.3683 25.6503Z" fill="black"/>
<path d="M20.8442 24.7963C20.8442 24.5753 21.0245 24.3929 21.2454 24.3929H21.8525C22.0735 24.3929 22.3567 24.2856 22.4897 24.0431C23.1397 22.8414 23.6675 21.099 23.8155 18.5712L23.7619 16.2987C23.7576 16.0777 23.9335 15.8975 24.1544 15.8975H31.8089C32.0299 15.8975 32.2101 16.0777 32.2101 16.3009V23.9938C32.2101 24.2148 32.3903 24.3972 32.6113 24.3972H33.6646C33.8856 24.3972 34.0658 24.5774 34.0658 24.8006V29.2468C34.0658 29.4679 33.8856 29.6503 33.6646 29.6503H31.7939C31.5729 29.6503 31.3927 29.47 31.3927 29.2468V27.4507C31.3927 27.2297 31.2125 27.0473 30.9916 27.0473H23.8949C23.6739 27.0473 23.4937 27.2276 23.4937 27.4507V29.2468C23.4937 29.4679 23.3135 29.6503 23.0925 29.6503H21.2476C21.0266 29.6503 20.8464 29.47 20.8464 29.2468V24.8006L20.8442 24.7963ZM25.2271 24.3929H28.96C29.1809 24.3929 29.3611 24.2126 29.3611 23.9895V18.9725C29.3611 18.7514 29.1809 18.569 28.96 18.569H26.9412C26.7202 18.569 26.5357 18.7493 26.5315 18.9703C26.5315 18.9703 26.5272 19.2106 26.4435 19.9553C26.214 21.9809 25.7227 23.6976 25.2271 24.3908V24.3929Z" fill="black"/>
<path d="M35.6448 27.0454C35.4238 27.0454 35.2437 26.8651 35.2437 26.6419V16.2989C35.2437 16.0779 35.4238 15.8955 35.6448 15.8955H37.6893C37.9103 15.8955 38.0904 16.0758 38.0904 16.2989V22.5541C38.0904 22.7751 38.1977 22.8116 38.3286 22.6335L43.0526 16.2217C43.1834 16.0436 43.473 15.8977 43.694 15.8977H45.7385C45.9595 15.8977 46.1396 16.0779 46.1396 16.3011V26.6441C46.1396 26.8651 45.9595 27.0475 45.7385 27.0475H43.694C43.473 27.0475 43.2928 26.8673 43.2928 26.6441V20.3889C43.2928 20.1679 43.1856 20.1314 43.0547 20.3095L38.3307 26.7213C38.1999 26.8995 37.9103 27.0454 37.6893 27.0454H35.6448Z" fill="black"/>
<path d="M56.0917 23.185C56.0917 22.964 55.9115 22.7816 55.6884 22.7816H51.6144C51.3935 22.7816 51.2133 22.9618 51.2133 23.185V26.6419C51.2133 26.863 51.0331 27.0454 50.8121 27.0454H48.7676C48.5466 27.0454 48.3665 26.8651 48.3665 26.6419V16.2989C48.3665 16.0779 48.5466 15.8955 48.7676 15.8955H50.8121C51.0331 15.8955 51.2133 16.0758 51.2133 16.2989V19.7066C51.2133 19.9276 51.3935 20.11 51.6144 20.11H55.6884C55.9093 20.11 56.0917 19.9297 56.0917 19.7066V16.2989C56.0917 16.0779 56.2719 15.8955 56.495 15.8955H58.5395C58.7605 15.8955 58.9428 16.0758 58.9428 16.2989V26.6419C58.9428 26.863 58.7626 27.0454 58.5395 27.0454H56.495C56.274 27.0454 56.0917 26.8651 56.0917 26.6419V23.185Z" fill="black"/>
<path d="M71.0508 11.945C69.6027 13.4513 67.8907 12.9878 65.8184 14.0136C64.3059 14.7131 63.6752 16.2217 63.4521 17.8589C63.4264 18.0392 63.598 17.9727 63.6581 17.8697C63.6688 17.8525 63.6817 17.8375 63.6902 17.8246C64.3167 16.962 65.7433 16.095 67.378 16.095C70.4501 16.095 72.456 18.2259 72.456 21.5691C72.456 24.6913 70.1283 27.3157 66.61 27.3157C62.8707 27.3157 60.5667 24.5905 60.5667 20.2559C60.5667 16.6143 61.3969 12.7819 64.7758 11.2883C66.2517 10.636 67.4853 10.6296 68.5515 10.2412C69.1565 10.0201 69.371 9.76477 69.4718 9.69395C69.6263 9.57593 69.8322 9.59525 69.9524 9.78194C69.9524 9.78194 71.0293 11.4536 71.0808 11.5458C71.1495 11.6703 71.1345 11.857 71.0508 11.945ZM66.5371 24.6656C68.3456 24.6656 69.4097 23.303 69.4097 21.6936C69.4097 20.0842 68.4679 18.7452 66.6594 18.7452C65.074 18.7452 63.9842 19.7108 63.613 20.8503C63.6388 23.0047 64.7286 24.6656 66.5349 24.6656H66.5371Z" fill="black"/>
<path d="M79.9453 27.0454C78.3106 31.0345 77.2701 32.0001 75.6354 32.0001C74.758 32.0001 74.0822 31.704 73.4987 31.3178C73.4086 31.2577 73.2863 31.0173 73.3786 30.7899C73.4708 30.5624 73.9921 29.3479 73.9921 29.3479C74.0779 29.144 74.3075 29.0646 74.5006 29.1719C74.5006 29.1719 74.8674 29.3736 75.3114 29.3736C76.0301 29.3736 76.5493 28.8028 77.0213 27.6398L77.1135 27.4166C77.1993 27.2127 77.1929 26.8802 77.0985 26.6806L72.2844 16.2624C72.1922 16.0607 72.2973 15.8977 72.5183 15.8977H75.1313C75.3522 15.8977 75.6054 16.065 75.6912 16.2667L77.976 21.6206C78.0618 21.8245 78.1926 22.1614 78.2655 22.3695C78.2655 22.3695 78.39 22.7279 78.5252 23.1313C78.5766 23.2858 78.7418 23.2601 78.7783 23.0863C78.8534 22.7236 78.9413 22.3481 79.0743 21.964L80.9536 16.2775C81.0223 16.0672 81.2604 15.8955 81.4814 15.8955H83.9206C84.1416 15.8955 84.2574 16.0629 84.1759 16.271L79.9389 27.0454H79.9453Z" fill="black"/>
<path d="M85.4072 16.299C85.4072 16.078 85.5875 15.8956 85.8106 15.8956H87.8551C88.076 15.8956 88.2584 16.0758 88.2584 16.299V16.5586C88.2584 16.7797 88.4192 16.7947 88.5737 16.6681C89.1422 16.2024 90.2642 15.623 91.7016 15.623C94.7737 15.623 96.7538 18.0006 96.7538 21.2967C96.7538 24.5927 94.4261 27.3158 90.8585 27.3158C89.9703 27.3158 89.1015 27.1763 88.4686 26.8802C88.3956 26.8459 88.2584 26.863 88.2584 27.0497V31.5968C88.2584 31.8178 88.0782 32.0002 87.8551 32.0002H85.8106C85.5896 32.0002 85.4072 31.82 85.4072 31.5968V16.299ZM88.2562 19.5135V23.6207C88.2562 23.8417 88.4 24.1121 88.593 24.2172C89.08 24.4833 89.6678 24.6678 90.6075 24.6678C92.5876 24.6678 93.7289 23.2323 93.7289 21.374C93.7289 19.5156 92.6884 18.3032 90.807 18.3032C89.8416 18.3032 88.9491 18.7496 88.2562 19.5178V19.5135Z" fill="black"/>
<path d="M98.5173 16.2989C98.5173 16.0779 98.6975 15.8955 98.9206 15.8955H105.597C105.818 15.8955 106 16.0758 106 16.2989V18.1701C106 18.3911 105.82 18.5735 105.597 18.5735H101.77C101.549 18.5735 101.366 18.7538 101.366 18.977V26.6441C101.366 26.8651 101.186 27.0475 100.963 27.0475H98.9184C98.6975 27.0475 98.5151 26.8673 98.5151 26.6441V16.3011L98.5173 16.2989Z" fill="black"/>
<path d="M2.61966 7.49647C2.6926 7.62522 2.81488 7.83338 2.88782 7.96213L3.83389 9.60154C3.90683 9.73029 4.06559 9.76465 4.18787 9.67881C4.18787 9.67881 4.62337 9.37195 4.97091 9.16595C5.3635 8.93205 5.9599 8.64879 5.9599 8.64879C6.09291 8.58442 6.14225 8.42991 6.06716 8.30116L5.09318 6.61452C5.02024 6.48577 5.06959 6.33127 5.2026 6.27119C5.2026 6.27119 5.73465 6.02869 6.13583 5.87633C6.56274 5.7154 7.19345 5.53085 7.19345 5.53085C7.33504 5.49008 7.47235 5.57377 7.49809 5.71969L7.84349 7.67456C7.86923 7.82048 8.00654 7.90847 8.14813 7.86984C8.14813 7.86984 8.6823 7.72607 9.15856 7.65096C9.5769 7.58444 10.1668 7.52222 10.1668 7.52222C10.3127 7.5072 10.4136 7.37416 10.3878 7.23038L10.0446 5.27766C10.0188 5.13174 10.1175 5.00512 10.2656 4.99439C10.2656 4.99439 10.9027 4.95148 11.3661 4.95148C11.7994 4.95148 12.383 4.99009 12.383 4.99009C12.531 5.00082 12.6297 5.12744 12.6039 5.27121L12.2607 7.22394C12.2349 7.36986 12.3336 7.4986 12.4816 7.50933C12.4816 7.50933 12.7605 7.53294 13.0287 7.56727C13.4428 7.62306 13.8482 7.69818 14.2472 7.79045C14.421 7.82693 14.5047 7.84839 14.5047 7.84839C14.6484 7.88272 14.7857 7.79473 14.8115 7.64881L15.1525 5.70683C15.1783 5.56091 15.3156 5.47722 15.4572 5.51799C15.4572 5.51799 16.0278 5.68321 16.429 5.82913C16.8624 5.98793 17.4545 6.25401 17.4545 6.25401C17.5896 6.31409 17.639 6.46859 17.5639 6.59734L16.6071 8.25611C16.5341 8.38486 16.5835 8.53721 16.7165 8.59944C16.7165 8.59944 17.2185 8.8269 17.5746 9.02432C17.9758 9.24534 18.5035 9.60583 18.5035 9.60583C18.6258 9.68952 18.7846 9.65304 18.8596 9.52429L19.7778 7.93635C19.8508 7.8076 19.9731 7.59947 20.046 7.47072L21.0178 5.78623C21.0908 5.65747 21.2131 5.44932 21.286 5.32057L22.526 3.179C22.5989 3.05025 22.6826 2.90863 22.7083 2.85927C22.7341 2.81206 22.7191 2.75198 22.6762 2.72408L22.6161 2.68759C22.5582 2.65326 22.4938 2.61464 22.4402 2.58245L22.3908 2.5524C22.3565 2.53309 22.2965 2.54167 22.2557 2.57601L22.2192 2.60605C22.1505 2.66184 22.0819 2.71549 22.0132 2.76699C21.0908 3.45581 20.0846 3.86353 19.1214 3.90216C18.7181 3.91718 18.3212 3.86998 17.9415 3.74981C17.9157 3.74123 17.8921 3.7305 17.8664 3.72191C17.7913 3.69616 17.7183 3.66826 17.6475 3.63607C16.828 3.28415 16.2209 2.61036 15.8541 1.73699C15.7103 1.39151 15.6031 1.01383 15.5366 0.612555C15.513 0.47522 15.4958 0.3336 15.4808 0.189827L15.4765 0.149055C15.4722 0.103992 15.4379 0.0610746 15.3993 0.0546371L15.3435 0.0460453C15.2684 0.035316 15.1804 0.0202986 15.1075 0.00956936L15.0539 0.000990642C15.0174 -0.00544693 14.9702 0.0203034 14.9509 0.0546371L14.9337 0.0868171C14.8565 0.21986 14.7771 0.346472 14.6934 0.468786C14.273 1.08679 13.7645 1.58892 13.196 1.93654C12.7005 2.23911 12.162 2.4258 11.5935 2.46871C11.5098 2.47515 11.424 2.47945 11.3382 2.47945C11.2524 2.47945 11.1752 2.4773 11.0936 2.47086C10.5144 2.42794 9.96306 2.23698 9.46106 1.92368C8.88826 1.56962 8.37982 1.0589 7.95934 0.428014C7.89069 0.325013 7.82203 0.217722 7.75767 0.108283L7.73837 0.0760904C7.71692 0.0396108 7.67187 0.0160043 7.63754 0.020296L7.58818 0.0288878C7.5088 0.041763 7.40798 0.0589193 7.32646 0.0717945L7.26853 0.0803863C7.22992 0.0868239 7.19344 0.138318 7.18701 0.19411L7.18274 0.243474C7.16772 0.402267 7.14411 0.556763 7.11837 0.706973C7.04972 1.08464 6.94676 1.44299 6.80731 1.76916C6.46835 2.56957 5.92771 3.20045 5.20474 3.56739C5.05243 3.64464 4.89368 3.71117 4.72634 3.76482C4.70489 3.77126 4.68131 3.77769 4.65985 3.78412C4.29944 3.88927 3.92614 3.93434 3.54428 3.91931C2.6411 3.88283 1.70147 3.52234 0.826184 2.91077C0.733935 2.8464 0.641679 2.77771 0.54943 2.7069L0.508656 2.67473C0.463604 2.63825 0.397112 2.62967 0.360642 2.65113L0.307009 2.6833C0.244795 2.72192 0.171845 2.76915 0.109631 2.80992L0.0495823 2.84853C0.00667612 2.87643 -0.0126453 2.92794 0.00880781 2.96442C0.0302609 3.0009 0.107503 3.13609 0.180443 3.2627L1.37752 5.33557C1.45046 5.46433 1.57274 5.67248 1.64568 5.80123L2.62181 7.49217L2.61966 7.49647Z" fill="#BEDC1C"/>
</svg>
